# xmcd
#
# Track frame offsets:
#	150
#	16671
#	25992
#	34497
#	43012
#	58411
#	63730
#	74910
#	86229
#	95805
#	109119
#	113423
#	130573
#	143987
#	155540
#	166707
#	179356
#	198357
#	212748
#	223666
#	233078
#	268440
#
# Disc length: 4558 seconds
#
# Revision: 2
# Processed by: cddbd v1.5.2PL0 Copyright (c) Steve Scherf et al.
# Submitted via: EasyCDDAExtractor 11.5.0.1
#
DISCID=5111cc16
DTITLE=Ruff Life Records Presents - The Ruff Sounds Of Philly
DYEAR=2001
DGENRE=Hip-Hop
TTITLE0=Outsidaz-Keep On (Remix)
TTITLE1=Outsidaz-WHo U Be (Featuring Redman and Method Man)
TTITLE2=DJ Muggs-When The Fat Lady Sings (Remix) (Featuring Gza)
TTITLE3=Don Blaq-Freestyle
TTITLE4=Liz Leite-Concrete (Featuring Don Blaq)
TTITLE5=Ruff Life Records-Interlude
TTITLE6=Major Figgas-What U Know About Ballin' (Remix)
TTITLE7=DJ Muggs-When The Pain Inflict (Featuring Kurupt and Roscoe)
TTITLE8=Outsidaz-Bring It Out Of Me
TTITLE9=Liz Leite-I Know The Game (Featuring Ja Rule)
TTITLE10=Ruff Life Records-Interlude
TTITLE11=Da Nation-Sex, Money and Drugs (Featuring Eazy Moe Bee)
TTITLE12=Liz Leite-L.I.Z.
TTITLE13=The Grits-The Circle
TTITLE14=Young Zee-I Love It (Featuring Rah Digga and Rockwilder)
TTITLE15=Negrow League-The World Is Not Enough (Featuring Eazy Moe Bee)
TTITLE16=Da Nation-All My Life (Featuring Eazy Moe Bee)
TTITLE17=Pacewon-It's Yours (Featuring Wyclef)
TTITLE18=Outsidaz-I'm Leavin' (Featuring Rah Digga and Kelis)
TTITLE19=DJ Muggs-Real Life (Featuring Kool G Rap)
TTITLE20=Outsidaz-Freestyle
TTITLE21=DATA
EXTD=this was a free CD on a UK hiphop mag called HHC. YEAR: 2001
EXTT0=
EXTT1=
EXTT2=
EXTT3=
EXTT4=
EXTT5=
EXTT6=
EXTT7=
EXTT8=
EXTT9=
EXTT10=
EXTT11=
EXTT12=
EXTT13=
EXTT14=
EXTT15=
EXTT16=
EXTT17=
EXTT18=
EXTT19=
EXTT20=
EXTT21=
PLAYORDER=
